<svg xmlns="http://www.w3.org/2000/svg" viewBox="0 0 16 16" shape-rendering="crispEdges">
  <title>Spine app icon</title>

  <rect x="4"  y="1"  width="8"  height="1"  fill="#1A0F12"/>
  <rect x="3"  y="2"  width="1"  height="12" fill="#1A0F12"/>
  <rect x="12" y="2"  width="1"  height="12" fill="#1A0F12"/>
  <rect x="4"  y="13" width="8"  height="1"  fill="#1A0F12"/>

  <rect x="4"  y="2"  width="8"  height="11" fill="#6B1E2B"/>

  <rect x="5"  y="3"  width="6"  height="1"  fill="#8B2A3A"/>
  <rect x="5"  y="6"  width="6"  height="1"  fill="#8B2A3A"/>
  <rect x="5"  y="9"  width="6"  height="1"  fill="#8B2A3A"/>
  <rect x="5"  y="12" width="6"  height="1"  fill="#8B2A3A"/>

  <rect x="5"  y="4"  width="6"  height="1"  fill="#E4B84F"/>
  <rect x="5"  y="7"  width="6"  height="1"  fill="#E4B84F"/>
  <rect x="5"  y="10" width="6"  height="1"  fill="#E4B84F"/>

  <rect x="5"  y="5"  width="6"  height="1"  fill="#A8802D"/>
  <rect x="5"  y="8"  width="6"  height="1"  fill="#A8802D"/>
  <rect x="5"  y="11" width="6"  height="1"  fill="#A8802D"/>

  <rect x="4"  y="2"  width="1"  height="1"  fill="#A83040"/>
</svg>
